<svg enable-background="new 0 0 24 24" height="24" viewBox="0 0 24 24" width="24" xmlns="http://www.w3.org/2000/svg"><path d="m0 0h24v24h-24z" fill="none"/><path d="m3 5v14c0 1.1.9 2 2 2h14c1.1 0 2-.9 2-2v-14c0-1.1-.9-2-2-2h-14c-1.1 0-2 .9-2 2zm13.3 11.29c-.39.39-1.02.39-1.41 0l-2.89-2.88-2.89 2.89c-.39.39-1.02.39-1.41 0-.39-.39-.39-1.02 0-1.41l2.89-2.89-2.89-2.89c-.39-.39-.39-1.02 0-1.41.39-.39 1.02-.39 1.41 0l2.89 2.89 2.89-2.88c.39-.39 1.02-.39 1.41 0 .39.39.39 1.02 0 1.41l-2.89 2.88 2.89 2.88c.38.39.38 1.03 0 1.41z"/></svg>